<?xml version="1.0" encoding="UTF-8" standalone="no"?>
<svg width="32px" height="32px" viewBox="0 0 32 32" version="1.1" xmlns="http://www.w3.org/2000/svg" xmlns:xlink="http://www.w3.org/1999/xlink" xmlns:sketch="http://www.bohemiancoding.com/sketch/ns">
    <!-- Generator: Sketch 3.5.1 (25234) - http://www.bohemiancoding.com/sketch -->
    <title>facebook</title>
    <desc>Created with Sketch.</desc>
    <defs></defs>
    <g id="Page-1" stroke="none" stroke-width="1" fill="none" fill-rule="evenodd" sketch:type="MSPage">
        <g id="Black" sketch:type="MSLayerGroup" transform="translate(-1.000000, -1124.000000)">
            <g id="Rounded" transform="translate(1.000000, 790.000000)" sketch:type="MSShapeGroup">
                <g id="facebook" transform="translate(0.000000, 334.000000)">
                    <rect id="Rectangle-1" fill="#000000" x="0" y="0" width="32" height="32" rx="4"></rect>
                    <path d="M20.2956811,31.9075869 L20.2956811,21.6964493 L23.723062,21.6964493 L24.2362637,17.7169878 L20.2956811,17.7169878 L20.2956811,15.176353 C20.2956811,14.0242071 20.6156136,13.2390577 22.2677628,13.2390577 L24.375,13.2381369 L24.375,9.67887456 C24.0105613,9.63037823 22.7596834,9.52202884 21.3043843,9.52202884 C18.2662017,9.52202884 16.1861798,11.376553 16.1861798,14.7822436 L16.1861798,17.7169878 L12.75,17.7169878 L12.75,21.6964493 L16.1861798,21.6964493 L16.1861798,31.9075869 L20.2956811,31.9075869 L20.2956811,31.9075869 Z" id="f" fill="#FFFFFF"></path>
                </g>
            </g>
        </g>
    </g>
</svg>