<?xml version="1.0" encoding="UTF-8" standalone="no"?>
<svg width="32px" height="32px" viewBox="0 0 32 32" version="1.1" xmlns="http://www.w3.org/2000/svg" xmlns:xlink="http://www.w3.org/1999/xlink" xmlns:sketch="http://www.bohemiancoding.com/sketch/ns">
    <!-- Generator: Sketch 3.5.1 (25234) - http://www.bohemiancoding.com/sketch -->
    <title>twitter</title>
    <desc>Created with Sketch.</desc>
    <defs></defs>
    <g id="Page-1" stroke="none" stroke-width="1" fill="none" fill-rule="evenodd" sketch:type="MSPage">
        <g id="Black" sketch:type="MSLayerGroup" transform="translate(-341.000000, -790.000000)">
            <g id="Rounded" transform="translate(1.000000, 790.000000)" sketch:type="MSShapeGroup">
                <g id="twitter" transform="translate(340.000000, 0.000000)">
                    <rect id="Rectangle-1" fill="#000000" x="0" y="0" width="32" height="32" rx="4"></rect>
                    <path d="M25.5,10.1907784 C24.805587,10.4988186 24.0591741,10.7069158 23.2759545,10.8005361 C24.0754072,10.3212979 24.6895055,9.56242793 24.9785767,8.65812599 C24.2302764,9.10197167 23.4015678,9.42416823 22.5194441,9.59781937 C21.8131396,8.8451774 20.8067233,8.375 19.6929077,8.375 C17.5543671,8.375 15.8204124,10.1087655 15.8204124,12.2473072 C15.8204124,12.5508175 15.8546702,12.8464006 15.9207329,13.1298095 C12.7023506,12.9683337 9.84901263,11.4266205 7.93904823,9.0837576 C7.60571522,9.6556708 7.41469963,10.3208269 7.41469963,11.0305287 C7.41469963,12.374053 8.09835372,13.5593106 9.13742332,14.2537226 C8.50265669,14.233621 7.90554534,14.0594042 7.38346167,13.7693899 C7.38302145,13.7855272 7.38302145,13.8017592 7.38302145,13.818087 C7.38302145,15.6942656 8.71786454,17.2592884 10.4893799,17.6152718 C10.1644463,17.7037955 9.82233643,17.7510773 9.46918365,17.7510773 C9.2196563,17.7510773 8.97711303,17.7267288 8.74060847,17.6816173 C9.23343516,19.2200266 10.6635021,20.3395991 12.3581024,20.3707425 C11.0327922,21.4094357 9.36310728,22.0285371 7.54874423,22.0285371 C7.23617307,22.0285371 6.92794467,22.0101337 6.625,21.9743648 C8.33875862,23.0731755 10.3742417,23.7142658 12.5611029,23.7142658 C19.6838788,23.7142658 23.5790246,17.813649 23.5790246,12.6962495 C23.5790246,12.5283564 23.5752497,12.3614066 23.5677946,12.1952127 C24.324305,11.6493462 24.9807789,10.9673903 25.4999373,10.1907784 L25.5,10.1907784 Z" id="Shape" fill="#FFFFFF"></path>
                </g>
            </g>
        </g>
    </g>
</svg>