<?xml version="1.0" encoding="UTF-8" standalone="no"?>
<svg width="256px" height="256px" viewBox="0 0 256 256" version="1.1" xmlns="http://www.w3.org/2000/svg" xmlns:xlink="http://www.w3.org/1999/xlink">
  <rect fill="#000000" x="0" y="0" width="256" height="256" style="opacity: 1" stroke-opacity="0"></rect>
  <circle fill="#000000" cx="128" cy="128" r="128" style="opacity: 0" stroke-opacity="0"></circle>
  <path d="M42,128 C42,112.405333 45.8413333,98.0146667 53.524,84.828 C61.2066667,71.6413333 71.6413333,61.2066667 84.828,53.524 C98.0146667,45.8413333 112.405333,42 128,42 C143.594667,42 157.985333,45.8413333 171.172,53.524 C184.358667,61.2066667 194.793333,71.6413333 202.476,84.828 C210.158667,98.0146667 214,112.405333 214,128 C214,143.594667 210.158667,157.985333 202.476,171.172 C194.793333,184.358667 184.358667,194.793333 171.172,202.476 C157.985333,210.158667 143.594667,214 128,214 C112.405333,214 98.0146667,210.158667 84.828,202.476 C71.6413333,194.793333 61.2066667,184.358667 53.524,171.172 C45.8413333,157.985333 42,143.594667 42,128 L42,128 Z M56.276,128 C56.276,145.888 62.296,161.654667 74.336,175.3 C79.84,164.521333 88.5546667,154.258667 100.48,144.512 C112.405333,134.765333 124.044,128.630667 135.396,126.108 C133.676,122.094667 132.013333,118.482667 130.408,115.272 C110.685333,121.578667 89.3573333,124.732 66.424,124.732 C61.952,124.732 58.6266667,124.674667 56.448,124.56 C56.448,125.018667 56.4193333,125.592 56.362,126.28 C56.3046667,126.968 56.276,127.541333 56.276,128 L56.276,128 Z M58.512,110.284 C61.0346667,110.513333 64.7613333,110.628 69.692,110.628 C88.8413333,110.628 107.016,108.048 124.216,102.888 C115.501333,87.408 105.926667,74.508 95.492,64.188 C86.4333333,68.7746667 78.6646667,75.1386667 72.186,83.28 C65.7073333,91.4213333 61.1493333,100.422667 58.512,110.284 L58.512,110.284 Z M84.14,184.588 C97.0973333,194.678667 111.717333,199.724 128,199.724 C136.485333,199.724 144.913333,198.118667 153.284,194.908 C150.990667,175.3 146.518667,156.322667 139.868,137.976 C129.318667,140.269333 118.683333,146.06 107.962,155.348 C97.2406667,164.636 89.3,174.382667 84.14,184.588 L84.14,184.588 Z M110.456,58.684 C120.546667,69.1186667 129.892,82.1333333 138.492,97.728 C154.086667,91.192 165.84,82.8786667 173.752,72.788 C160.450667,61.78 145.2,56.276 128,56.276 C122.152,56.276 116.304,57.0786667 110.456,58.684 L110.456,58.684 Z M144.684,109.94 C146.404,113.609333 148.353333,118.253333 150.532,123.872 C159.017333,123.069333 168.248,122.668 178.224,122.668 C185.333333,122.668 192.385333,122.84 199.38,123.184 C198.462667,107.589333 192.844,93.7146667 182.524,81.56 C175.070667,92.6826667 162.457333,102.142667 144.684,109.94 L144.684,109.94 Z M154.832,135.912 C160.68,152.882667 164.636,170.312 166.7,188.2 C175.758667,182.352 183.154667,174.841333 188.888,165.668 C194.621333,156.494667 198.061333,146.576 199.208,135.912 C190.837333,135.338667 183.212,135.052 176.332,135.052 C170.025333,135.052 162.858667,135.338667 154.832,135.912 L154.832,135.912 Z" fill="#FFFFFF" stroke-opacity="0"></path>
</svg>
