<?xml version="1.0" encoding="UTF-8" standalone="no"?>
<svg width="256px" height="256px" viewBox="0 0 256 256" version="1.1" xmlns="http://www.w3.org/2000/svg" xmlns:xlink="http://www.w3.org/1999/xlink">
  <rect fill="#000000" x="0" y="0" width="256" height="256" style="opacity: 1" stroke-opacity="0"></rect>
  <circle fill="#000000" cx="128" cy="128" r="128" style="opacity: 0" stroke-opacity="0"></circle>
  <path d="M127.941436,42 C79.3761215,42 40,81.480284 40,130.174069 C40,169.137709 65.1952215,202.181458 100.143011,213.838173 C104.539052,214.645517 106.143983,211.922281 106.143983,209.597379 C106.143983,207.498423 106.063427,200.545415 106.020487,193.183225 C81.5660694,198.51104 76.3971054,182.785746 76.3971054,182.785746 C72.3930219,172.603535 66.6335449,169.891149 66.6335449,169.891149 C58.6413516,164.423324 67.2398598,164.530958 67.2398598,164.530958 C76.0693861,165.144388 80.7179155,173.615298 80.7179155,173.615298 C88.5653146,187.09112 101.30772,183.194756 106.310247,180.934435 C107.109621,175.25134 109.38545,171.354976 111.892468,169.159235 C92.3708428,166.93129 71.8347999,159.364508 71.8347999,125.577996 C71.8347999,115.944635 75.2646876,108.087498 80.879027,101.914625 C79.9826083,99.6758299 76.9553274,90.7044628 81.7484792,78.5688176 C81.7484792,78.5688176 89.1235366,76.2008616 105.934435,87.610104 C112.94433,85.64582 120.464353,84.6771107 127.941264,84.6447343 C135.412851,84.6771107 142.938027,85.6564973 149.958914,87.6207813 C166.737866,76.2008616 174.123572,78.5794949 174.123572,78.5794949 C178.932869,90.7259896 175.905589,99.6865072 175.003845,101.914625 C180.639655,108.087498 184.042748,115.944807 184.042748,125.577996 C184.042748,159.450616 163.474414,166.909591 143.883054,169.094655 C147.049977,171.828568 149.851736,177.188759 149.851736,185.412024 C149.851736,197.198073 149.733564,206.702101 149.733564,209.608229 C149.733564,211.954658 151.332999,214.699248 155.788126,213.838173 C190.709293,202.159931 215.882872,169.116182 215.882872,130.174069 C215.882872,81.480284 176.506751,42 127.941436,42 L127.941436,42 Z" fill="#FFFFFF" stroke-opacity="0"></path>
</svg>
