<?xml version="1.0" encoding="UTF-8" standalone="no"?>
<svg width="256px" height="256px" viewBox="0 0 256 256" version="1.1" xmlns="http://www.w3.org/2000/svg" xmlns:xlink="http://www.w3.org/1999/xlink">
    <g stroke="none" stroke-width="1" fill="none" fill-rule="evenodd">
        <g transform="translate(-256.000000, 0.000000)">
            <g>
                <g transform="translate(256.000000, 0.000000)">
                    <rect fill="#000000" x="0" y="0" width="256" height="256" style="opacity: 1" stroke-opacity="0"></rect>
                    <circle fill="#000000" cx="128" cy="128" r="128" style="opacity: 0" stroke-opacity="0"></circle>
                    <g transform="translate(62.000000, 86.000000)" fill="#FFFFFF">
                        <g>
                            <path d="M117.471698,44.9108911 L117.471698,59.8811881 L107.09434,59.8811881 L107.09434,44.9108911 L92.1509434,44.9108911 L92.1509434,34.5148515 L107.09434,34.5148515 L107.09434,19.960396 L117.471698,19.960396 L117.471698,34.5148515 L132,34.5148515 L132,44.9108911 L117.471698,44.9108911 L117.471698,44.9108911 Z M41.9245283,84 C18.7701509,84 0,65.1960594 0,42 C0,18.8039406 18.7701509,0 41.9245283,0 C52.7892075,0 62.6887925,4.14011881 70.1364151,10.9316436 C61.362566,19.2322574 61.6506415,19.7246139 58.2020377,23.1794257 C53.8941887,19.6102574 49.1969811,17.049505 41.9245283,17.049505 C28.1695472,17.049505 17.4339623,28.2202574 17.4339623,42 C17.4339623,55.7797426 28.1695472,66.950495 41.9245283,66.950495 C55.5163774,66.950495 61.0392075,61.078396 64.5903396,50.2956238 C58.031434,50.2956238 41.9245283,50.3168317 41.9245283,50.3168317 L41.9245283,33.6831683 L82.1886792,33.6831683 C84.9930566,53.809901 76.5338491,84 41.9245283,84 L41.9245283,84 Z"></path>
                        </g>
                    </g>
                </g>
            </g>
        </g>
    </g>
</svg>
