<?xml version="1.0" encoding="UTF-8" standalone="no"?>
<svg width="256px" height="256px" viewBox="0 0 256 256" version="1.1" xmlns="http://www.w3.org/2000/svg" xmlns:xlink="http://www.w3.org/1999/xlink">
    <rect fill="#000000" x="0" y="0" width="256" height="256"></rect>
    <circle fill="#000000" cx="128" cy="128" r="128" style="opacity: 0" stroke-opacity="0"></circle>
    <path d="M128.00675,56 C108.452546,56 105.998521,56.0855 98.3184408,56.435 C90.653361,56.786 85.4213065,57.9995 80.8432588,59.78 C76.1077095,61.619 72.0906676,64.079 68.0886259,68.0825 C64.0835842,72.0845 61.6235586,76.1015 59.7785394,80.8355 C57.9935208,85.415 56.7785081,90.6485 56.4335045,98.3105 C56.0900009,105.9905 56,108.446 56,128 C56,147.554 56.0870009,150.0005 56.4350045,157.6805 C56.7875082,165.3455 58.0010208,170.5775 59.7800394,175.1555 C61.6205585,179.891 64.0805842,183.908 68.0841259,187.91 C72.0846675,191.915 76.1017094,194.381 80.8342587,196.22 C85.4153064,198.0005 90.6488609,199.214 98.3124408,199.565 C105.992521,199.9145 108.445046,200 127.99775,200 C147.553454,200 149.999979,199.9145 157.680059,199.565 C165.345139,199.214 170.583194,198.0005 175.164241,196.22 C179.898291,194.381 183.909332,191.915 187.909874,187.91 C191.914916,183.908 194.374941,179.891 196.219961,175.157 C197.989979,170.5775 199.204992,165.344 199.564995,157.682 C199.909999,150.002 200,147.554 200,128 C200,108.446 199.909999,105.992 199.564995,98.312 C199.204992,90.647 197.989979,85.415 196.219961,80.837 C194.374941,76.1015 191.914916,72.0845 187.909874,68.0825 C183.904832,64.0775 179.899791,61.6175 175.159741,59.78 C170.569693,57.9995 165.334639,56.786 157.669559,56.435 C149.989479,56.0855 147.544454,56 127.98425,56 L128.00675,56 Z M121.547683,68.975 C123.464703,68.972 125.603725,68.975 128.00675,68.975 C147.23095,68.975 149.509474,69.044 157.101053,69.389 C164.121126,69.71 167.931166,70.883 170.469192,71.8685 C173.829227,73.1735 176.224752,74.7335 178.743279,77.2535 C181.263305,79.7735 182.823321,82.1735 184.131335,85.5335 C185.116845,88.0685 186.291357,91.8785 186.610861,98.8985 C186.955864,106.4885 187.030865,108.7685 187.030865,127.9835 C187.030865,147.1985 186.955864,149.4785 186.610861,157.0685 C186.289857,164.0885 185.116845,167.8985 184.131335,170.4335 C182.826321,173.7935 181.263305,176.186 178.743279,178.7045 C176.223252,181.2245 173.830727,182.7845 170.469192,184.0895 C167.934166,185.0795 164.121126,186.2495 157.101053,186.5705 C149.510974,186.9155 147.23095,186.9905 128.00675,186.9905 C108.78105,186.9905 106.502526,186.9155 98.912447,186.5705 C91.8923739,186.2465 88.0823342,185.0735 85.5428077,184.088 C82.1827727,182.783 79.7827477,181.223 77.2627215,178.703 C74.7426952,176.183 73.182679,173.789 71.8746654,170.4275 C70.8891551,167.8925 69.7146429,164.0825 69.3951395,157.0625 C69.0501359,149.4725 68.9811352,147.1925 68.9811352,127.9655 C68.9811352,108.7385 69.0501359,106.4705 69.3951395,98.8805 C69.7161429,91.8605 70.8891551,88.0505 71.8746654,85.5125 C73.179679,82.1525 74.7426952,79.7525 77.2627215,77.2325 C79.7827477,74.7125 82.1827727,73.1525 85.5428077,71.8445 C88.0808342,70.8545 91.8923739,69.6845 98.912447,69.362 C105.554516,69.062 108.128543,68.972 121.547683,68.957 L121.547683,68.975 Z M166.44015,80.93 C161.670101,80.93 157.80006,84.7955 157.80006,89.567 C157.80006,94.337 161.670101,98.207 166.44015,98.207 C171.2102,98.207 175.08024,94.337 175.08024,89.567 C175.08024,84.797 171.2102,80.927 166.44015,80.927 L166.44015,80.93 Z M128.00675,91.025 C107.587037,91.025 91.0313649,107.5805 91.0313649,128 C91.0313649,148.4195 107.587037,164.9675 128.00675,164.9675 C148.426463,164.9675 164.976135,148.4195 164.976135,128 C164.976135,107.5805 148.424963,91.025 128.00525,91.025 L128.00675,91.025 Z M128.00675,104 C141.260888,104 152.007,114.7445 152.007,128 C152.007,141.254 141.260888,152 128.00675,152 C114.751112,152 104.0065,141.254 104.0065,128 C104.0065,114.7445 114.751112,104 128.00675,104 L128.00675,104 Z" fill="#FFFFFF"></path>
</svg>
