<?xml version="1.0" encoding="UTF-8" standalone="no"?>
<svg width="256px" height="256px" viewBox="0 0 256 256" version="1.1" xmlns="http://www.w3.org/2000/svg" xmlns:xlink="http://www.w3.org/1999/xlink">
  <rect fill="#000000" x="0" y="0" width="256" height="256" style="opacity: 1" stroke-opacity="0"></rect>
  <circle fill="#000000" cx="128" cy="128" r="128" style="opacity: 0" stroke-opacity="0"></circle>
  <path d="M127.967694,47.1072121 C83.2782428,47.1072121 47.0425762,83.3428788 47.0425762,128.03233 C47.0425762,161.16105 66.9848374,189.629351 95.4892651,202.165518 C95.2725014,196.529662 95.4531378,189.737732 96.8982292,183.596094 C98.4517024,177.020928 107.302887,139.484679 107.302887,139.484679 C107.302887,139.484679 104.701723,134.318478 104.701723,126.695621 C104.701723,114.701362 111.638161,105.741795 120.30871,105.741795 C127.678676,105.741795 131.21915,111.26927 131.21915,117.880563 C131.21915,125.286656 126.486475,136.341606 124.065947,146.601754 C122.042819,155.200048 128.365094,162.172614 136.855006,162.172614 C152.172975,162.172614 162.505378,142.483244 162.505378,119.145018 C162.505378,101.406521 150.547247,88.1478076 128.834749,88.1478076 C104.304323,88.1478076 88.9863538,106.464341 88.9863538,126.912384 C88.9863538,133.957205 91.0817363,138.94277 94.333192,142.772262 C95.8144106,144.542499 96.0311743,145.265045 95.4892651,147.288173 C95.0918649,148.769392 94.2248101,152.345993 93.82741,153.791084 C93.2855007,155.850339 91.6236456,156.572885 89.7811541,155.814212 C78.4733139,151.18992 73.1987303,138.834388 73.1987303,124.889256 C73.1987303,101.912303 92.5990823,74.3471849 131.038513,74.3471849 C161.927342,74.3471849 182.267003,96.7099741 182.267003,120.698491 C182.267003,152.454375 164.600761,176.153873 138.589116,176.153873 C129.846313,176.153873 121.645419,171.421199 118.827491,166.074361 C118.827491,166.074361 114.130944,184.71604 113.11938,188.328768 C111.421398,194.578789 108.06156,200.792682 104.990741,205.669865 C112.252325,207.801375 119.947437,208.993575 127.931567,208.993575 C172.621018,208.993575 208.856685,172.757909 208.856685,128.068457 C208.892812,83.3428788 172.657145,47.1072121 127.967694,47.1072121 L127.967694,47.1072121 Z" fill="#FFFFFF" stroke-opacity="0"></path>
</svg>
