<?xml version="1.0" encoding="UTF-8" standalone="no"?>
<svg width="256px" height="256px" viewBox="0 0 256 256" version="1.1" xmlns="http://www.w3.org/2000/svg" xmlns:xlink="http://www.w3.org/1999/xlink">
    <rect id="Rectangle-22" fill="#000000" x="0" y="0" width="256" height="256"></rect>
    <circle fill="#000000" cx="128" cy="128" r="128" style="opacity: 0" stroke-opacity="0"></circle>
    <g id="Group-2" transform="translate(79.000000, 63.000000)" fill="#FFFFFF">
        <path d="M15.1875,114.625 C23.5753246,114.625 30.375,107.825325 30.375,99.4375 C30.375,91.0496754 23.5753246,84.25 15.1875,84.25 C6.79967536,84.25 0,91.0496754 0,99.4375 C0,107.825325 6.79967536,114.625 15.1875,114.625 Z" stroke-opacity="0"></path>
        <path d="M73.5,115 C73.5,74.4070709 40.5929291,41.5 0,41.5 L0,59.5 C30.6518036,59.5 55.5,84.3481964 55.5,115 L73.5,115 L73.5,115 Z" stroke-opacity="0"></path>
        <path d="M108,115 C108,55.353247 59.646753,7 4.67836884e-15,7 L0,25 C49.7056275,25 90,65.2943725 90,115 L108,115 L108,115 Z" stroke-opacity="0"></path>
    </g>
</svg>
