<?xml version="1.0" encoding="UTF-8" standalone="no"?>
<svg width="256px" height="256px" viewBox="0 0 256 256" version="1.1" xmlns="http://www.w3.org/2000/svg" xmlns:xlink="http://www.w3.org/1999/xlink">
  <rect fill="#000000" x="0" y="0" width="256" height="256" stroke-opacity="0"></rect>
  <circle fill="#000000" cx="128" cy="128" r="128" style="opacity: 0" stroke-opacity="0"></circle>
  <path d="M204,81.5262269 C198.444696,83.9905485 192.473393,85.6553261 186.207636,86.404289 C192.603257,82.5703832 197.516044,76.4994235 199.828613,69.2650079 C193.842211,72.8157734 187.212542,75.3933459 180.155553,76.782555 C174.505117,70.7614192 166.453786,67 157.543262,67 C140.434937,67 126.563299,80.8701239 126.563299,97.9784575 C126.563299,100.40654 126.837362,102.771205 127.365863,105.038476 C101.618805,103.74667 78.792101,91.4129641 63.5123858,72.6700608 C60.8457218,77.2453664 59.3175971,82.5666149 59.3175971,88.2442299 C59.3175971,98.9924236 64.7868297,108.474485 73.0993865,114.02978 C68.0212536,113.868968 63.2443627,112.475234 59.0676933,110.155119 C59.0641716,110.284218 59.0641716,110.414074 59.0641716,110.544696 C59.0641716,125.554125 69.7429163,138.074307 83.9150395,140.922175 C81.3155705,141.630364 78.5786915,142.008618 75.7534692,142.008618 C73.7572504,142.008618 71.8169042,141.81383 69.9248678,141.452938 C73.8674813,153.760213 85.3080169,162.716793 98.8648191,162.96594 C88.2623379,171.275485 74.9048583,176.228297 60.3899538,176.228297 C57.8893845,176.228297 55.4235573,176.08107 53,175.794918 C66.710069,184.585404 82.9939333,189.714127 100.488824,189.714127 C157.471031,189.714127 188.632197,142.509192 188.632197,101.569996 C188.632197,100.226852 188.601998,98.8912524 188.542357,97.5617018 C194.59444,93.1947697 199.846231,87.7391222 203.999498,81.5262269 L204,81.5262269 Z" fill="#FFFFFF"></path>
</svg>
