<?xml version="1.0" encoding="UTF-8" standalone="no"?>
<svg width="256px" height="256px" viewBox="0 0 256 256" version="1.1" xmlns="http://www.w3.org/2000/svg" xmlns:xlink="http://www.w3.org/1999/xlink">
  <rect fill="#000000" x="0" y="0" width="256" height="256" style="opacity: 1" stroke-opacity="0"></rect>
  <circle fill="#000000" cx="128" cy="128" r="128" style="opacity: 0" stroke-opacity="0"></circle>
  <path d="M189.667778,97.8368937 C188.64517,88.6051211 182.061888,81.5677757 172.792813,80.9632148 C132.725865,78.3455951 123.274135,78.3455951 83.2059009,80.9632148 C73.9368256,81.5677757 67.3548303,88.6025485 66.3322221,97.8368937 C63.2219495,125.910384 63.2232358,130.636249 66.3322221,158.709738 C67.3548303,167.944084 73.9406845,174.978856 83.2059009,175.583417 C123.275421,178.201037 132.725865,178.201037 172.792813,175.583417 C182.059315,174.978856 188.64517,167.941511 189.667778,158.709738 C192.776764,130.636249 192.77805,125.910384 189.667778,97.8368937 L189.667778,97.8368937 Z M146.791552,130.699277 L112.132207,151.584925 C111.233084,152.126457 109.981514,152.140606 109.068242,151.623514 C108.154969,151.108994 107.419206,150.207298 107.419206,149.158963 L107.419206,107.387669 C107.419206,106.339334 108.154969,105.437638 109.068242,104.921832 C109.981514,104.406026 111.128894,104.420175 112.028017,104.961707 L146.738813,125.847355 C147.613497,126.374738 148.135735,127.251994 148.135735,128.273316 C148.135735,129.294638 147.666235,130.173181 146.791552,130.699277 L146.791552,130.699277 Z" fill="#FFFFFF"></path>
</svg>
