<?xml version="1.0" encoding="UTF-8" standalone="no"?>
<svg width="256px" height="256px" viewBox="0 0 256 256" version="1.1" xmlns="http://www.w3.org/2000/svg" xmlns:xlink="http://www.w3.org/1999/xlink">
    <g stroke="none" stroke-width="1" fill="none" fill-rule="evenodd">
        <g sketch:type="MSLayerGroup" transform="translate(-1.000000, -790.000000)">
            <g transform="translate(1.000000, 790.000000)">
                <g>
                    <rect fill="#000000" x="0" y="0" width="256" height="256"></rect>
                    <circle fill="#000000" cx="128" cy="128" r="128" style="opacity: 0"></circle>
                    <path d="M175.604753,53.0000377 L81.3952468,53.0000377 C66.8255386,53.0000377 55,64.8143407 55,79.3709073 L55,175.885579 C55,190.466522 66.8143031,202.280826 81.3952468,202.256445 L175.604753,202.256445 C190.142558,202.256445 202,190.442142 202,175.885579 L202,79.3709073 C202,64.7899636 190.185697,52.9756606 175.604753,53.0000377 L175.604753,53.0000377 Z M100.15387,118.860897 C103.877729,106.747498 115.183458,97.9989317 128.493243,97.9633356 C141.803027,97.9277394 153.116356,106.786676 156.832615,118.860897 C157.688885,121.627538 158.178549,124.543727 158.178549,127.629941 C158.178549,144.005463 144.868764,157.315247 128.493243,157.296539 C112.117721,157.27783 98.8266453,143.986754 98.8079368,127.629941 C98.8062394,124.564204 99.2565812,121.648016 100.15387,118.860897 L100.153884,118.860897 L100.15387,118.860897 Z M185.495317,177.635004 C185.495317,181.224159 182.504354,184.215122 178.915199,184.228131 L78.1142219,184.228131 C74.4558452,184.228131 71.5341037,181.237169 71.5341037,177.635004 L71.5341037,118.860897 L81.5556057,118.860897 C80.996523,121.702312 80.733091,124.618501 80.733091,127.629902 C80.733091,154.025148 102.118475,175.410532 128.513722,175.427197 C154.884594,175.427197 176.294353,154.041813 176.294353,127.629902 C176.294353,124.638939 175.995256,121.72275 175.471838,118.860897 L185.493327,118.860897 L185.493327,177.635004 L185.491661,177.635004 L185.491684,177.635004 L185.495317,177.635004 Z M185.495317,95.7857531 C185.495317,99.3749085 182.504354,102.365871 178.915199,102.378889 L161.315031,102.378889 C157.690229,102.378889 154.734912,99.3879266 154.734912,95.7857531 L154.734912,79.3037505 C154.734912,75.6398211 157.725875,72.7236323 161.315031,72.7106134 L178.915199,72.7106134 C182.539988,72.7106134 185.495317,75.6268021 185.495317,79.3037505 L185.495317,95.7857531 L185.495317,95.7857531 Z" id="Shape" fill="#FFFFFF"></path>
                </g>
            </g>
        </g>
    </g>
</svg>
