<?xml version="1.0" encoding="UTF-8" standalone="no"?>
<svg width="256px" height="256px" viewBox="0 0 256 256" version="1.1" xmlns="http://www.w3.org/2000/svg" xmlns:xlink="http://www.w3.org/1999/xlink" xmlns:sketch="http://www.bohemiancoding.com/sketch/ns">
    <!-- Generator: Sketch 3.5.1 (25234) - http://www.bohemiancoding.com/sketch -->
    <title>linkedin</title>
    <desc>Created with Sketch.</desc>
    <defs></defs>
    <g id="Page-1" stroke="none" stroke-width="1" fill="none" fill-rule="evenodd" sketch:type="MSPage">
        <g id="Black" sketch:type="MSLayerGroup" transform="translate(-686.000000, -1125.000000)">
            <g id="Rounded" transform="translate(1.000000, 790.000000)" sketch:type="MSShapeGroup">
                <g id="linkedin" transform="translate(685.000000, 335.000000)">
                    <rect id="Rectangle-11" fill="#000000" x="0" y="0" width="256" height="256" rx="24"></rect>
                    <path d="M89.582529,61.0626737 L89.582529,151.393878 L59.5714028,151.393878 L59.5714028,61.0626737 L89.582529,61.0626737 L89.582529,61.0626737 Z M74.5768324,163.727079 C85.0423192,163.727079 91.5561964,170.663502 91.5561964,179.332026 C91.3611542,188.195678 85.0423192,194.939646 74.775348,194.939646 C64.5094454,194.939646 57.7973198,188.195678 57.7973198,179.332026 C57.7973198,170.663502 64.3098611,163.727079 74.3812557,163.727079 L74.576298,163.727079 L74.5768324,163.727079 Z M106.188641,61.0626737 L136.1995,61.0626737 L136.1995,111.507442 C136.1995,114.207167 136.394542,116.904219 137.187002,118.834122 C139.356513,124.228227 144.294555,129.814787 152.585187,129.814787 C163.444767,129.814787 167.788865,121.531174 167.788865,109.387757 L167.788865,61.0626737 L197.79732,61.0626737 L197.79732,112.857305 C197.79732,140.602996 182.991475,153.513564 163.246518,153.513564 C147.056407,153.513564 139.948854,144.460129 135.999916,138.293528 L136.200302,138.293528 L136.200302,151.393878 L106.189443,151.393878 C106.583268,142.91781 106.189443,61.0626737 106.189443,61.0626737 L106.188641,61.0626737 Z" id="path28" fill="#FFFFFF" transform="translate(127.797320, 128.001160) scale(1, -1) translate(-127.797320, -128.001160) "></path>
                </g>
            </g>
        </g>
    </g>
</svg>